<svg data-v-0dd9719b="" version="1.0" xmlns="http://www.w3.org/2000/svg" xmlns:xlink="http://www.w3.org/1999/xlink" width="100%" height="100%" viewBox="0 0 340.000000 250.000000" preserveAspectRatio="xMidYMid meet" color-interpolation-filters="sRGB" style="margin: auto;"> <rect data-v-0dd9719b="" x="0" y="0" width="100%" height="100%" fill="#ffffff" fill-opacity="1" class="background"></rect> <rect data-v-0dd9719b="" x="0" y="0" width="100%" height="100%" fill="url(#watermark)" fill-opacity="1" class="watermarklayer"></rect> <g data-v-0dd9719b="" fill="#0a5694" class="icon-text-wrapper icon-svg-group iconsvg" transform="translate(47.715003967285156,94.89040184020996)"><g class="iconsvg-imagesvg" transform="translate(0,0)"><g><rect fill="#0a5694" fill-opacity="0" stroke-width="2" x="0" y="0" width="60" height="60.219197880284234" class="image-rect"></rect> <svg filter="url(#colors8848929603)" x="0" y="0" width="60" height="60.219197880284234" filtersec="colorsf5943758895" class="image-svg-svg primary" style="overflow: visible;"><svg xmlns="http://www.w3.org/2000/svg" viewBox="0 0 350.4599914550781 351.7400207519531"><g><g><path d="M140.44 46.16l-32.19 40.06-18.17-14.54L147.53 0c6.76 14.47 13.21 28.32 19.68 42.16C178.83 67 190.39 92 202.15 116.77c1.51 3.16 1.24 5.27-1 7.88-5.08 5.93-9.85 12.12-15.33 18.92C170.61 111 155.71 79 140.44 46.16zM131.13 172.68l-84.86 65.91 46.18 22.49C89.08 268 85.85 274.7 82.32 282L0 242.11c1.3-1.17 2.25-2.15 3.32-3q49.07-38.24 98.09-76.49c2.59-2 4.57-2.42 7.54-.85 7.05 3.73 14.29 7.07 22.18 10.91zM254.77 287.6c4-17 7.75-33.29 11.65-50l22.65 5.25c-6.87 29.72-13.64 59-20.58 89.08-1.71-1.21-3-2-4.24-3q-48-39.21-96-78.39c-2.45-2-3.05-3.67-2.26-6.68 2-7.7 3.65-15.49 5.68-24.3zM139.44 313l45.65-21.74 10 21-82.59 39.48c0-6.7-.06-12.75 0-18.81.46-36.66 1-73.32 1.33-110 0-3.53 1.11-5.31 4.35-6.71 7.12-3.08 14.05-6.63 21.25-10.07zM350.46 198c-42.81 9.25-84.77 18.34-126.76 27.29-1.6.34-4.21-.11-5.15-1.21-5.55-6.45-10.65-13.21-16.55-20.67l105-22.59-31.85-40.3 18.22-14.47c18.98 23.89 37.76 47.58 57.09 71.95zM15.39 85.41C34.54 90 52.79 94.34 71 98.73c23 5.53 45.91 11.21 68.93 16.55 4 .93 5.73 2.61 6.42 6.68 1.24 7.34 3.19 14.57 5.1 23L47 119.71c3.84 17.16 7.48 33.46 11.21 50.13l-22.69 5.07c-6.71-29.91-13.34-59.37-20.13-89.5zM296.39 50.59c-2.94 6-5.62 11.46-8.34 16.93-16.19 32.63-32.45 65.23-48.52 97.92-1.54 3.14-3.26 4.36-6.76 4.24-7.8-.27-15.62-.09-24.47-.09 16.07-32.31 31.77-63.89 47.8-96.11h-50.81V50.59z"></path></g></g></svg></svg> <defs><filter id="colors8848929603"><feColorMatrix type="matrix" values="0 0 0 0 0.0390625  0 0 0 0 0.3359375  0 0 0 0 0.578125  0 0 0 1 0" class="icon-fecolormatrix"></feColorMatrix></filter> <filter id="colorsf5943758895"><feColorMatrix type="matrix" values="0 0 0 0 0.99609375  0 0 0 0 0.99609375  0 0 0 0 0.99609375  0 0 0 1 0" class="icon-fecolormatrix"></feColorMatrix></filter> <filter id="colorsb4118712040"><feColorMatrix type="matrix" values="0 0 0 0 0  0 0 0 0 0  0 0 0 0 0  0 0 0 1 0" class="icon-fecolormatrix"></feColorMatrix></filter></defs></g></g> <g transform="translate(67,6.073347091674805)"><g data-gra="path-name" fill-rule="" class="tp-name iconsvg-namesvg" transform="translate(0,0)"><g transform="scale(1)"><g><path d="M12.65-2.47L26.92-2.47 26.92-12.37 12.65-12.37 12.65-2.47ZM12.65 0.28L12.65 2.61 8.07 2.61 8.07-9.2Q7.08-7.93 3.14-4.97L3.14-4.97Q2.18-6.27 1.53-7.01 0.88-7.75 0.88-7.72L0.88-7.72Q4.3-10.22 7.12-14.53 9.94-18.85 11.7-23.99L11.7-23.99 1.94-23.99 1.94-26.81 33.72-26.81 33.72-23.99 16.59-23.99Q15.11-19.84 12.33-15.08L12.33-15.08 31.64-15.08 31.64 2.5 26.92 2.5 26.92 0.28 12.65 0.28ZM69.44-26.35L69.44-19.27 64.83-19.27 64.83-23.82 43.02-23.82 43.02-19.27 38.58-19.27 38.58-26.35 51.65-26.35Q50.91-28.19 50.66-28.61L50.66-28.61 54.93-29.84Q56.12-27.83 56.72-26.35L56.72-26.35 69.44-26.35ZM52.11 2.54L52.11 2.54 51.54 2.54Q50.31 2.54 48.51 2.43L48.51 2.43Q48.48 1.83 48.21 0.9 47.95-0.04 47.84-0.21L47.84-0.21Q50.31 0 51.4 0L51.4 0Q51.86 0 52.14-0.07 52.43-0.14 52.78-0.53L52.78-0.53Q54.15-1.8 54.15-5.46L54.15-5.46Q48.62-1.59 39.57 1.23L39.57 1.23Q39.11 0.25 38.19-1.3L38.19-1.3Q42.21-2.25 46.49-4.26 50.77-6.27 53.66-8.77L53.66-8.77Q53.2-10.32 53.06-10.68L53.06-10.68Q51.37-9.58 47.81-7.96 44.25-6.34 40.09-5.04L40.09-5.04Q38.76-7.4 38.72-7.4L38.72-7.4Q41.89-8.1 45.5-9.62 49.11-11.13 51.79-12.97L51.79-12.97Q50.84-14.45 50.52-14.73L50.52-14.73Q46.47-12.58 40.31-10.89L40.31-10.89Q39.74-12.08 38.93-13.28L38.93-13.28Q45.31-14.62 51.4-18.21L51.4-18.21 43.26-18.21 43.26-20.61 64.47-20.61 64.47-18.21 55.95-18.21Q55.21-17.58 53.98-16.74L53.98-16.74 53.48-16.28Q56.19-13.63 57.01-11.73L57.01-11.73Q60-13.74 63.7-17.23L63.7-17.23 66.62-14.87Q64.83-13.42 61.97-11.45L61.97-11.45Q63.35-7.43 65.58-4.84 67.82-2.25 70.32-1.23L70.32-1.23Q70.32-1.16 69.78-0.48 69.23 0.21 68.56 1.44L68.56 1.44Q61.16-2.08 58.45-9.27L58.45-9.27 58.03-9.02Q58.63-6.52 58.63-4.54L58.63-4.54Q58.63-0.74 56.62 0.92L56.62 0.92Q54.93 2.54 52.11 2.54ZM76.77 3.28L76.77 3.28Q74.34 1.69 73.07 1.27L73.07 1.27Q75.89-3.91 75.89-15.92L75.89-15.92 75.89-24.73 89.63-24.73Q88.61-27.55 87.97-28.68L87.97-28.68 92.1-29.81Q93.82-26.78 94.07-25.86L94.07-25.86 90.37-24.73 106.05-24.73 106.05-22.13 80.4-22.13 80.4-15.89Q80.4-13.18 80.17-9.85 79.94-6.52 79.24-3.28 78.53-0.04 76.77 3.28ZM106.15-1.2L106.15 1.51 79.24 1.51 79.24-1.2 90.3-1.2 90.3-11.2 81.53-11.2 81.53-13.92 90.3-13.92 90.3-20.58 94.91-20.58 94.91-13.92 104.39-13.92 104.39-11.2 94.91-11.2 94.91-1.2 106.15-1.2ZM117.64-10.32L133.63-10.32 133.63-16.28 117.64-16.28 117.64-10.32ZM138.25-18.88L138.25-7.72 113.24-7.72 113.24-18.88 123.17-18.88 123.17-29.35 127.79-29.35 127.79-25.9 140.72-25.9 140.72-23.29 127.79-23.29 127.79-18.88 138.25-18.88ZM112.81 2.75L112.81 2.75 109.4 1.09Q111.65-1.06 113.59-5.71L113.59-5.71 117.71-4.62Q116.3-0.85 112.81 2.75ZM124.51 1.76L119.93 2.36Q119.93-0.53 119.26-4.37L119.26-4.37 123.59-4.76Q124.4-0.95 124.51 1.76L124.51 1.76ZM133.18 1.27L128.84 2.36Q128.21-0.74 126.59-4.3L126.59-4.3 130.5-5.21Q132.58-1.13 133.18 1.27L133.18 1.27ZM142.09 0.95L138.04 2.61Q136.49-1.13 133.88-4.65L133.88-4.65 137.44-5.99Q141.14-1.16 142.09 0.95L142.09 0.95ZM176.02-23.75L173.02-21.42Q170.87-24.73 168.44-27.06L168.44-27.06 171.02-28.85Q174.64-25.47 176.02-23.75L176.02-23.75ZM153.51-20.89L153.51 2.54 149.1 2.54 149.1-14.2Q149.07-14.2 146.88-11.84L146.88-11.84Q145.86-14.69 145.01-15.82L145.01-15.82Q149.77-20.86 152.8-29.45L152.8-29.45 156.92-28.22Q155.69-24.84 153.51-20.89L153.51-20.89ZM155.76 3.07L155.76 3.07Q154.91 1.59 154.25 0.92 153.58 0.25 153.54 0.21L153.54 0.21Q160.55-4.83 161.26-18.5L161.26-18.5 153.89-18.5 153.89-21.17 161.43-21.17Q161.54-25.19 161.54-28.89L161.54-28.89 166.05-28.89Q166.05-25.23 165.91-21.17L165.91-21.17 178.17-21.17 178.17-18.5 165.73-18.5Q165.34-11.94 163.44-6.62 161.54-1.3 155.76 3.07ZM173.94 1.66L173.94 1.66 170.21 1.66Q167.39 1.66 166.54 0.69 165.7-0.28 165.7-2.43L165.7-2.43 165.7-15.57 170.17-15.57 170.17-2.43Q170.17-1.3 170.33-1.11 170.49-0.92 170.66-0.92L170.66-0.92 173.66-0.92Q173.62-0.92 173.62-0.95L173.62-0.95Q173.62-1.02 173.8-1.3 173.98-1.59 174.1-2.87 174.22-4.16 174.33-7.26L174.33-7.26Q176.12-5.71 176.86-5.39 177.6-5.07 178.45-4.86L178.45-4.86Q178.27-1.37 177.46 0.14 176.65 1.66 173.94 1.66Z" transform="translate(-0.8799999952316284, 29.84000015258789)"></path></g> <!----> <!----> <!----> <!----> <!----> <!----> <!----></g></g> <g data-gra="path-slogan" fill-rule="" class="tp-slogan iconsvg-slogansvg" fill="#171e60" transform="translate(5.000007629394531,39.119998931884766)"><rect x="0" height="1" y="3.9750003814697266" width="8.784172058105469"></rect> <rect height="1" y="3.9750003814697266" width="8.784172058105469" x="158.78582000732422"></rect> <g transform="translate(11.784172058105469,0)"><g transform="scale(1)"><path d="M7.17-6.09L7.17-6.09L6.09-6.09Q6-7.73 3.94-7.83L3.94-7.83Q2.02-7.78 2.02-6.33L2.02-6.33Q2.02-5.39 3.05-5.25L3.05-5.25L5.48-4.69Q7.41-4.22 7.41-2.34L7.41-2.34Q7.36 0.05 4.03 0.14L4.03 0.14Q2.20 0.14 1.45-0.61L1.45-0.61Q0.52-1.31 0.56-2.77L0.56-2.77L1.69-2.77Q1.73-0.80 4.03-0.75L4.03-0.75Q6.28-0.80 6.33-2.20L6.33-2.20Q6.52-3.38 4.45-3.75L4.45-3.75L2.67-4.13Q0.84-4.64 0.84-6.19L0.84-6.19Q0.98-8.72 3.84-8.81L3.84-8.81Q7.08-8.81 7.17-6.09ZM10.03-5.06L14.53-5.06L14.53-8.58L15.70-8.58L15.70 0L14.53 0L14.53-3.98L10.03-3.98L10.03 0L8.86 0L8.86-8.58L10.03-8.58L10.03-5.06ZM17.67-8.58L18.84-8.58L18.84 0L17.67 0L17.67-8.58ZM20.11-1.92L20.11-2.77L21.19-2.77L21.19-2.16Q21.19-0.75 22.50-0.75L22.50-0.75Q23.86-0.75 23.86-2.25L23.86-2.25L23.86-8.58L25.03-8.58L25.03-2.30Q24.98 0.09 22.55 0.14L22.55 0.14Q20.25 0.09 20.11-1.92L20.11-1.92ZM27-8.58L28.17-8.58L28.17 0L27 0L27-8.58ZM35.81 0L34.97-2.48L31.50-2.48L30.61 0L29.44 0L32.67-8.58L33.98-8.58L37.08 0L35.81 0ZM33.23-7.31L31.88-3.52L34.55-3.52L33.28-7.31L33.23-7.31ZM38.95-1.03L44.25-1.03L44.25 0L37.50 0L37.50-0.94L42.75-7.59L37.88-7.59L37.88-8.58L44.25-8.58L44.25-7.59L38.95-1.03ZM46.55-5.06L51.05-5.06L51.05-8.58L52.22-8.58L52.22 0L51.05 0L51.05-3.98L46.55-3.98L46.55 0L45.38 0L45.38-8.58L46.55-8.58L46.55-5.06ZM59.67-3.19L59.67-8.58L60.84-8.58L60.84-3.05Q60.70 0.05 57.33 0.14L57.33 0.14Q54.19 0.05 54.05-2.86L54.05-2.86L54.05-8.58L55.22-8.58L55.22-3.19Q55.27-0.84 57.38-0.80L57.38-0.80Q59.67-0.84 59.67-3.19L59.67-3.19ZM68.30 0L67.45-2.48L63.98-2.48L63.09 0L61.92 0L65.16-8.58L66.47-8.58L69.56 0L68.30 0ZM65.72-7.31L64.36-3.52L67.03-3.52L65.77-7.31L65.72-7.31ZM72-8.58L76.31-1.64L76.31-8.58L77.44-8.58L77.44 0L76.13 0L71.77-6.94L71.72-6.94L71.72 0L70.59 0L70.59-8.58L72-8.58ZM85.64-3.61L83.02-3.61L83.02-4.59L86.77-4.59L86.77 0L86.02 0L85.73-1.08Q84.75 0.09 82.92 0.14L82.92 0.14Q81.19 0.14 80.25-0.75L80.25-0.75Q78.84-2.06 78.89-4.36L78.89-4.36Q79.22-8.63 82.97-8.81L82.97-8.81Q86.16-8.63 86.63-6L86.63-6L85.50-6Q85.03-7.78 82.92-7.83L82.92-7.83Q80.25-7.64 80.11-4.31L80.11-4.31Q80.11-0.75 82.97-0.75L82.97-0.75Q84-0.75 84.75-1.31L84.75-1.31Q85.69-2.06 85.64-3.61L85.64-3.61ZM95.39 0L91.92 0L91.92-8.58L95.44-8.58Q98.91-8.39 99.05-4.41L99.05-4.41Q98.86-0.09 95.39 0L95.39 0ZM95.25-7.64L93.09-7.64L93.09-0.98L95.34-0.98Q97.78-1.13 97.88-4.31L97.88-4.31Q97.83-7.55 95.25-7.64L95.25-7.64ZM100.69-8.58L101.86-8.58L101.86 0L100.69 0L100.69-8.58ZM109.50 0L108.66-2.48L105.19-2.48L104.30 0L103.13 0L106.36-8.58L107.67-8.58L110.77 0L109.50 0ZM106.92-7.31L105.56-3.52L108.23-3.52L106.97-7.31L106.92-7.31ZM113.20-8.58L117.52-1.64L117.52-8.58L118.64-8.58L118.64 0L117.33 0L112.97-6.94L112.92-6.94L112.92 0L111.80 0L111.80-8.58L113.20-8.58ZM127.36-8.58L124.13-3.47L124.13 0L122.95 0L122.95-3.47L119.72-8.58L121.08-8.58L123.52-4.45L126-8.58L127.36-8.58ZM135.19-4.27L135.19-4.27Q135-7.64 132.19-7.83L132.19-7.83Q129.33-7.69 129.19-4.27L129.19-4.27Q129.33-0.94 132.19-0.80L132.19-0.80Q135-0.98 135.19-4.27ZM136.36-4.27L136.36-4.27Q136.08 0 132.19 0.14L132.19 0.14Q128.25 0 127.97-4.27L127.97-4.27Q128.20-8.72 132.19-8.81L132.19-8.81Q136.08-8.67 136.36-4.27ZM143.39-3.19L143.39-8.58L144.56-8.58L144.56-3.05Q144.42 0.05 141.05 0.14L141.05 0.14Q137.91 0.05 137.77-2.86L137.77-2.86L137.77-8.58L138.94-8.58L138.94-3.19Q138.98-0.84 141.09-0.80L141.09-0.80Q143.39-0.84 143.39-3.19L143.39-3.19Z" transform="translate(-0.5602678571428572, 8.8125)"></path></g></g></g></g></g><defs v-gra="od"></defs></svg>